# xmcd
# Track frame offsets:
# 150
# 21294
# 47674
# 72802
# 92357
# 107572
# 123568
# 139461
# 149019
# 170025
#
# Disc length: 2489 seconds
# Revision: 0
# Processed by: cddbd v1.5.2PL0 Copyright (c) Steve Scherf et al.
# Submitted via: VisiTrax 2.11.1.266 - For more info visit www.synapsa.com
#
DISCID=9209b70a
DTITLE=Billy Watson - LUCKY #SEVEN
DYEAR=2009
DGENRE=Blues
TTITLE0=Fat Chance
TTITLE1=All I See Is Blue
TTITLE2=Hinterland
TTITLE3=Elevator Music In A UFO
TTITLE4=Mean 'Ole Lady
TTITLE5=Stick Around A While
TTITLE6=Black Panther Blues
TTITLE7=Taryn's Boogie
TTITLE8=Tramp Stamp
TTITLE9=Walter Falter
EXTD=Lil Snick Music 2009, see www.billywatson.com.
EXTT0=
EXTT1=
EXTT2=
EXTT3=
EXTT4=
EXTT5=
EXTT6=
EXTT7=
EXTT8=
EXTT9=
PLAYORDER=
